<?xml version="1.0" standalone="no"?>
<!DOCTYPE svg PUBLIC "-//W3C//DTD SVG 20010904//EN"
 "http://www.w3.org/TR/2001/REC-SVG-20010904/DTD/svg10.dtd">
<svg version="1.0" xmlns="http://www.w3.org/2000/svg"
 width="500.000000pt" height="500.000000pt" viewBox="0 0 500.000000 500.000000"
 preserveAspectRatio="xMidYMid meet">
<metadata>
Created by potrace 1.11, written by Peter Selinger 2001-2013
</metadata>
<g transform="translate(0.000000,500.000000) scale(0.100000,-0.100000)"
fill="#000000" stroke="none">
<path d="M2432 4974 c-35 -12 -66 -22 -70 -23 -14 -3 -178 -53 -252 -76 -41
-14 -208 -65 -370 -115 -162 -50 -306 -95 -320 -100 -14 -4 -77 -24 -140 -44
-407 -125 -827 -255 -928 -288 -34 -11 -62 -25 -63 -31 0 -7 -2 -19 -3 -27 -4
-16 -11 -80 -23 -205 -16 -163 -8 -888 11 -1005 3 -14 7 -52 11 -85 3 -33 7
-71 9 -85 8 -61 19 -137 22 -155 2 -10 6 -35 9 -55 6 -38 12 -70 20 -110 3
-14 8 -36 11 -50 3 -14 7 -36 10 -50 11 -55 68 -270 91 -345 203 -648 509
-1136 958 -1527 158 -138 402 -297 615 -400 185 -90 460 -195 480 -183 5 3 18
8 28 10 57 10 320 120 477 197 404 200 788 535 1057 923 278 400 470 879 579
1441 16 84 32 174 35 200 3 27 7 61 10 76 10 68 12 87 19 155 4 40 8 85 10
100 19 164 25 631 11 858 -9 137 -10 156 -21 245 -5 36 -8 70 -7 77 2 6 -12
16 -30 21 -18 6 -98 31 -178 56 -80 25 -248 77 -375 116 -126 39 -345 107
-485 151 -140 44 -259 81 -265 83 -8 2 -51 15 -110 32 -10 3 -90 28 -365 114
-91 28 -219 68 -285 89 l-120 37 -63 -22z"/>
</g>
</svg>
